<svg width="33" height="33" viewBox="0 0 33 33" fill="none" xmlns="http://www.w3.org/2000/svg">
<g clip-path="url(#clip0_78_425)" filter="url(#filter0_d_78_425)">
<path d="M28.3254 10.8738C28.3248 10.8732 28.3243 10.8727 28.3237 10.8721L18.1257 0.674438C17.691 0.239563 17.1131 0 16.4983 0C15.8836 0 15.3057 0.239372 14.8708 0.674248L4.67811 10.8667C4.67468 10.8702 4.67124 10.8738 4.66781 10.8772C3.77517 11.775 3.7767 13.2317 4.6722 14.1272C5.08132 14.5365 5.62168 14.7736 6.19941 14.7984C6.22287 14.8006 6.24652 14.8018 6.27037 14.8018H6.67682V22.3066C6.67682 23.7917 7.88513 25 9.37057 25H13.3604C13.7647 25 14.0928 24.6721 14.0928 24.2676V18.3838C14.0928 17.7061 14.644 17.1549 15.3217 17.1549H17.675C18.3527 17.1549 18.9039 17.7061 18.9039 18.3838V24.2676C18.9039 24.6721 19.2318 25 19.6363 25H23.6261C25.1115 25 26.3198 23.7917 26.3198 22.3066V14.8018H26.6967C27.3113 14.8018 27.8892 14.5624 28.3243 14.1275C29.2207 13.2305 29.2211 11.7714 28.3254 10.8738V10.8738Z" fill="#5B73A0"/>
</g>
<defs>
<filter id="filter0_d_78_425" x="0" y="0" width="33" height="33" filterUnits="userSpaceOnUse" color-interpolation-filters="sRGB">
<feFlood flood-opacity="0" result="BackgroundImageFix"/>
<feColorMatrix in="SourceAlpha" type="matrix" values="0 0 0 0 0 0 0 0 0 0 0 0 0 0 0 0 0 0 127 0" result="hardAlpha"/>
<feOffset dy="4"/>
<feGaussianBlur stdDeviation="2"/>
<feComposite in2="hardAlpha" operator="out"/>
<feColorMatrix type="matrix" values="0 0 0 0 0 0 0 0 0 0 0 0 0 0 0 0 0 0 0.25 0"/>
<feBlend mode="normal" in2="BackgroundImageFix" result="effect1_dropShadow_78_425"/>
<feBlend mode="normal" in="SourceGraphic" in2="effect1_dropShadow_78_425" result="shape"/>
</filter>
<clipPath id="clip0_78_425">
<rect width="25" height="25" fill="white" transform="translate(4)"/>
</clipPath>
</defs>
</svg>
