<svg width="28" height="28" viewBox="0 0 28 28" fill="none" xmlns="http://www.w3.org/2000/svg">
<path d="M27.6389 10.7989L14.4364 0.583071C14.3159 0.489551 14.1646 0.433411 13.9999 0.433411C13.8354 0.433411 13.6841 0.489551 13.5631 0.583071L0.36112 10.7989C0.12592 10.9806 0.0207797 11.2974 0.12186 11.5939C0.22378 11.8903 0.5007 12.0768 0.79736 12.0768H27.2021C27.499 12.0768 27.7761 11.8903 27.8776 11.5939C27.9785 11.2974 27.8734 10.9806 27.6389 10.7989ZM8.26902 8.81045L13.9999 4.37553L19.7308 8.81045H8.26902Z" fill="#FEAA09"/>
<path d="M8.88013 22.4608H8.16221V14.9056C8.68147 14.9056 9.10665 14.4805 9.10665 13.9613C9.10665 13.4415 8.68147 13.0169 8.16221 13.0169H4.50345C3.98391 13.0169 3.55859 13.4415 3.55859 13.9613C3.55859 14.4805 3.98377 14.9056 4.50345 14.9056V22.4608H3.78581C3.66079 22.4608 3.55859 22.5624 3.55859 22.687V23.14C3.55859 23.2648 3.66065 23.3668 3.78581 23.3668H8.88013C9.00459 23.3668 9.10665 23.2648 9.10665 23.14V22.687C9.10665 22.5623 9.00445 22.4608 8.88013 22.4608Z" fill="#FEAA09"/>
<path d="M16.5469 22.4608H15.8296V14.9056C16.3487 14.9056 16.7737 14.4805 16.7737 13.9613C16.7737 13.4415 16.3487 13.0169 15.8296 13.0169H12.1705C11.651 13.0169 11.2261 13.4415 11.2261 13.9613C11.2261 14.4805 11.651 14.9056 12.1705 14.9056V22.4608H11.453C11.328 22.4608 11.2261 22.5624 11.2261 22.687V23.14C11.2261 23.2648 11.328 23.3668 11.453 23.3668H16.5471C16.6718 23.3668 16.7739 23.2648 16.7739 23.14V22.687C16.7737 22.5623 16.6717 22.4608 16.5469 22.4608Z" fill="#FEAA09"/>
<path d="M24.2145 22.4608H23.4966V14.9056C24.0162 14.9056 24.4413 14.4805 24.4413 13.9613C24.4413 13.4415 24.0162 13.0169 23.4966 13.0169H19.838C19.3187 13.0169 18.8936 13.4415 18.8936 13.9613C18.8936 14.4805 19.3187 14.9056 19.838 14.9056V22.4608H19.1201C18.9959 22.4608 18.8936 22.5624 18.8936 22.687V23.14C18.8936 23.2648 18.9959 23.3668 19.1201 23.3668H24.2145C24.3393 23.3668 24.4413 23.2648 24.4413 23.14V22.687C24.4413 22.5623 24.3393 22.4608 24.2145 22.4608Z" fill="#FEAA09"/>
<path d="M25.6669 25.9333V24.7671C25.6669 24.6472 25.6213 24.5278 25.5298 24.4369C25.4391 24.3455 25.3197 24.3003 25.2003 24.3003H2.80028C2.68086 24.3003 2.5613 24.3454 2.47016 24.4369C2.3793 24.5278 2.33352 24.6472 2.33352 24.7671V25.9333H0.46676C0.34706 25.9333 0.22764 25.979 0.13664 26.0699C0.0455 26.1613 0 26.2807 0 26.4V27.5664H28V26.4C28 26.2806 27.9544 26.1613 27.8631 26.0699C27.7726 25.9792 27.6529 25.9333 27.5334 25.9333H25.6669Z" fill="#FEAA09"/>
</svg>
