<svg width="33" height="33" viewBox="0 0 33 33" fill="none" xmlns="http://www.w3.org/2000/svg">
<g clip-path="url(#clip0_78_374)" filter="url(#filter0_d_78_374)">
<path d="M26.6985 9.41406H26.1678C25.9954 8.87451 25.7778 8.35039 25.5172 7.84683L25.8931 7.47095C26.8045 6.56055 26.7801 5.10156 25.8934 4.21582L24.7845 3.10693C23.8993 2.22056 22.44 2.19487 21.5293 3.10659L21.1532 3.48276C20.6496 3.22222 20.1254 3.00464 19.5859 2.83223V2.30142C19.5859 1.03242 18.5535 0 17.2845 0H15.7155C14.4465 0 13.4141 1.03242 13.4141 2.30142V2.83223C12.8746 3.00459 12.3504 3.22217 11.8468 3.48276L11.471 3.10693C10.5622 2.19702 9.10293 2.21836 8.21592 3.10664L7.10688 4.21558C6.22056 5.10093 6.19492 6.56001 7.10659 7.4707L7.48276 7.84687C7.22217 8.35044 7.00464 8.87451 6.83223 9.41411H6.30146C5.03247 9.41406 4 10.4465 4 11.7155V13.2845C4 14.5535 5.03247 15.5859 6.30146 15.5859H6.83223C7.00464 16.1255 7.22217 16.6496 7.48276 17.1532L7.10688 17.5291C6.19551 18.4395 6.21992 19.8984 7.10659 20.7842L8.21553 21.8931C9.10073 22.7794 10.56 22.8051 11.4707 21.8934L11.8468 21.5172C12.3504 21.7778 12.8746 21.9954 13.4141 22.1678V22.6986C13.4141 23.9676 14.4465 25 15.7155 25H17.2845C18.5535 25 19.586 23.9676 19.586 22.6986V22.1678C20.1255 21.9954 20.6497 21.7778 21.1532 21.5172L21.5291 21.8931C22.4379 22.803 23.8971 22.7816 24.7841 21.8934L25.8932 20.7844C26.7795 19.899 26.8051 18.4399 25.8935 17.5292L25.5173 17.1531C25.7779 16.6495 25.9954 16.1254 26.1678 15.5858H26.6986C27.9676 15.5858 29 14.5534 29 13.2844V11.7154C29 10.4465 27.9675 9.41406 26.6985 9.41406ZM16.5 17.9395C13.5006 17.9395 11.0605 15.4993 11.0605 12.5C11.0605 9.50068 13.5006 7.06055 16.5 7.06055C19.4994 7.06055 21.9395 9.50068 21.9395 12.5C21.9395 15.4993 19.4994 17.9395 16.5 17.9395Z" fill="#5B73A0"/>
</g>
<defs>
<filter id="filter0_d_78_374" x="0" y="0" width="33" height="33" filterUnits="userSpaceOnUse" color-interpolation-filters="sRGB">
<feFlood flood-opacity="0" result="BackgroundImageFix"/>
<feColorMatrix in="SourceAlpha" type="matrix" values="0 0 0 0 0 0 0 0 0 0 0 0 0 0 0 0 0 0 127 0" result="hardAlpha"/>
<feOffset dy="4"/>
<feGaussianBlur stdDeviation="2"/>
<feComposite in2="hardAlpha" operator="out"/>
<feColorMatrix type="matrix" values="0 0 0 0 0 0 0 0 0 0 0 0 0 0 0 0 0 0 0.25 0"/>
<feBlend mode="normal" in2="BackgroundImageFix" result="effect1_dropShadow_78_374"/>
<feBlend mode="normal" in="SourceGraphic" in2="effect1_dropShadow_78_374" result="shape"/>
</filter>
<clipPath id="clip0_78_374">
<rect width="25" height="25" fill="white" transform="translate(4)"/>
</clipPath>
</defs>
</svg>
